<?xml version="1.0" encoding="utf-8"?>
<!-- Generator: Adobe Illustrator 22.0.1, SVG Export Plug-In . SVG Version: 6.00 Build 0)  -->
<svg version="1.1" id="Layer_1" xmlns="http://www.w3.org/2000/svg" xmlns:xlink="http://www.w3.org/1999/xlink" x="0px" y="0px"
	 viewBox="0 0 500 500" style="enable-background:new 0 0 500 500;" xml:space="preserve">
<path style="fill:#F17F3B;" d="M37.25,383.59c0,0-63.82-91.97-24.4-228.99S215.57,6.32,241.85,2.56s155.79-13.14,232.75,131.39
	s-44.33,284.03-56.31,294.69C384.5,458.7,208.06,593.82,37.25,383.59z"/>
<path style="fill:none;" d="M37.25,383.59c0,0-63.82-91.97-24.4-228.99S215.57,6.32,241.85,2.56s155.79-13.14,232.75,131.39
	s-44.33,284.03-56.31,294.69C384.5,458.7,208.06,593.82,37.25,383.59z"/>
<g>
	<polygon style="fill:#1A4253;" points="434.93,224.97 430.86,194.87 454.04,222.38 460.61,220.93 450.01,164.96 443.44,166.41 
		448.05,200.57 426.87,169.87 419.86,171.56 427.3,226.58 	"/>
	<path style="fill:#1A4253;" d="M325.51,241.92l12.24-1.05l1.81-18.92l16.24-0.12l5.33,16.99l12.37-1.93l-24.26-55.16l-14.72,0.83
		L325.51,241.92z M341.58,195.78l4.89-0.04l5.65,16.65l-11.95,0.09L341.58,195.78z"/>
	<path style="fill:#1A4253;" d="M384.23,233.77l18.91-2.56l10.62-11.71l-2.34-17.34l-16.26-3.9l14.17-11.54l-0.94-6.97l-10.34-3.7
		l-21.23,2.87L384.23,233.77z M405.19,209.97l1.16,8.62l-9.74,7.09l-2.36-17.44L405.19,209.97z M399.88,183.3l0.45,3.36l-8.37,4.56
		l-0.91-6.73L399.88,183.3z"/>
	<path style="fill:#1A4253;" d="M499.4,219.89c-36.46,24.47-128.38,35.82-209.09,41.04c-2.78-65.61,15.32-109.53,55.57-163.07
		c21.76-28.94,35.66-48.15,44.22-60.27c-4.22-2.79-8.44-5.36-12.65-7.76c-29.72,30.27-116.03,125.1-111.13,201.05
		c0.72,11.09,1.68,21.36,2.86,30.92c-15.91,0.91-24.44,1.59-38.57,2.09c-1.18-22.94-1.24-44.67,0.42-63.56
		C238.31,117.05,271.98,33,285.65,1.67c-7.6-0.62-14.51-0.8-20.62-0.73c-22.14,31.14-74.84,121.47-59.14,258.52
		c0.2,1.71,0.37,3.32,0.57,5c-8.07,0.23-22.36,0.4-29.23,0.53c2.59-26.9-0.38-51.78-3.38-68.59
		c-4.13-23.13-49.12-99.55-100.71-132.96c-6.41,5.24-12.59,10.91-18.42,17.12c36.08,27.8,96.43,81.9,100.56,135.55
		c1.63,21.13,2.13,36.87,1.79,49.1c-10.46,0.14-11.79,0.17-16.71,0.17c-33.87,0.01-102.92-4.98-139.99-7.86
		c0.33,6.95,0.88,13.68,1.63,20.14c27.09,3.73,76.33,8.54,154.05,9.48c-2.35,20.11-18.94,43.59-25.4,57.08
		c-7.85,16.41-43.09,54.44-61.97,74.22c6.91,6.86,13.81,13.16,20.7,19.01c17.05-20.74,52.96-66.33,67.79-99.57
		c5.44-12.18,15.71-38.24,17.93-50.61c8.65,0.05,24.21-0.04,33.14-0.25c17.23,154.94,22.93,190.7,33.84,212.11
		c0,0,6.63,0,16.71-0.52c2.11-0.11,4.2-0.33,6.28-0.53c-1.87-7.95-26.49-113.92-33.48-211.57c15.37-0.59,24.21-1.48,39.75-2.61
		c9.44,58.92,34.58,80.86,52.98,105.66c14.23,19.19,42.06,46.52,60.8,64.21c7.47-4.88,13.98-9.58,19.44-13.78
		c-37.63-30.76-107.03-94.58-112.75-151.08c-0.21-2.05-0.33-4-0.5-6.01c95.65-7.7,186.28-23.18,207.62-26.96
		C500.03,244.19,500.24,232.16,499.4,219.89z"/>
</g>
</svg>
