<?xml version="1.0" encoding="utf-8"?>
<!-- Generator: Adobe Illustrator 22.0.1, SVG Export Plug-In . SVG Version: 6.00 Build 0)  -->
<svg version="1.1" id="Layer_1" xmlns="http://www.w3.org/2000/svg" xmlns:xlink="http://www.w3.org/1999/xlink" x="0px" y="0px"
	 viewBox="0 0 500 500" style="enable-background:new 0 0 500 500;" xml:space="preserve">
<path style="fill:#F17F3B;" d="M37.21,383.62c0,0-63.83-91.99-24.41-229.04S215.56,6.27,241.85,2.52s155.82-13.14,232.79,131.41
	s-44.34,284.08-56.32,294.74C384.52,458.74,208.05,593.88,37.21,383.62z"/>
<path style="fill:#F17F3B;" d="M37.21,383.62c0,0-63.83-91.99-24.41-229.04S215.56,6.27,241.85,2.52s155.82-13.14,232.79,131.41
	s-44.34,284.08-56.32,294.74C384.52,458.74,208.05,593.88,37.21,383.62z"/>
<polygon style="fill:#1A4253;" points="419.89,171.55 427.33,226.58 434.96,224.96 430.9,194.86 454.08,222.38 460.65,220.93 
	450.04,164.94 443.47,166.4 448.09,200.56 426.91,169.85 "/>
<path style="fill:#1A4253;" d="M349.26,181.71l-14.72,0.83l-9.02,59.38l12.24-1.05l1.81-18.92l16.24-0.12l5.33,16.99l12.38-1.93
	L349.26,181.71z M340.18,212.48l1.41-16.71l4.89-0.04l5.65,16.65L340.18,212.48z"/>
<path style="fill:#1A4253;" d="M408.42,179.74l-10.35-3.7l-21.23,2.87l7.41,54.86l18.92-2.56l10.62-11.71l-2.34-17.34l-16.26-3.9
	l14.17-11.55L408.42,179.74z M405.22,209.96l1.16,8.62l-9.74,7.1l-2.36-17.45L405.22,209.96z M400.36,186.65l-8.37,4.56l-0.91-6.73
	l8.83-1.19L400.36,186.65z"/>
<path style="fill:#1A4253;" d="M265.19,498.62c0,0-0.04-0.19-0.12-0.52c-2.07,0.2-4.14,0.38-6.24,0.52H265.19z"/>
<path style="fill:#1A4253;" d="M291.8,288.88c-0.21-2.05-0.33-4-0.5-6.01c95.76-7.71,186.49-23.21,207.73-26.98
	c1.11-11.69,1.35-23.7,0.52-35.96c-36.48,24.47-128.52,35.78-209.23,41c-2.78-65.62,15.32-109.55,55.58-163.1
	c21.74-28.92,35.68-48.17,44.24-60.3c-4.21-2.79-8.43-5.38-12.64-7.78c-29.75,30.31-116.08,125.19-111.18,201.13
	c0.72,11.09,1.68,21.36,2.86,30.93c-15.91,0.91-24.45,1.59-38.57,2.09c-1.19-22.94-1.24-44.68,0.42-63.57
	c7.29-83.26,40.95-167.34,54.63-198.71c-7.59-0.62-14.52-0.8-20.63-0.74c-22.16,31.2-74.83,121.58-59.15,258.58
	c0.2,1.71,0.38,3.32,0.57,5c-8.08,0.23-22.36,0.4-29.23,0.53c2.59-26.9-0.38-51.79-3.38-68.61
	c-4.13-23.14-49.15-99.63-100.77-133.03c-6.41,5.24-12.57,10.94-18.4,17.15c36.09,27.8,96.46,81.93,100.59,135.59
	c1.63,21.13,2.13,36.88,1.79,49.11c-10.46,0.14-11.79,0.17-16.72,0.17c-33.88,0.01-102.95-4.98-140.03-7.86
	c0.33,6.96,0.89,13.68,1.64,20.14c27.09,3.73,76.35,8.54,154.08,9.48c-2.35,20.12-18.95,43.59-25.4,57.09
	c-7.84,16.39-43.08,54.44-61.98,74.24c6.9,6.85,13.8,13.19,20.68,19.03c17.04-20.73,52.99-66.36,67.83-99.62
	c5.44-12.19,15.71-38.24,17.93-50.62c8.65,0.05,24.22-0.04,33.15-0.25c17.23,154.96,22.83,190.22,33.75,211.62h16.86
	c2.09-0.14,4.17-0.32,6.24-0.52c-1.92-8.17-26.5-114.05-33.48-211.61c15.38-0.59,24.21-1.48,39.75-2.61
	c9.44,58.93,34.59,80.88,52.99,105.68c14.23,19.18,42.07,46.53,60.81,64.22c7.47-4.87,13.98-9.58,19.44-13.78
	C366.92,409.22,297.52,345.38,291.8,288.88z"/>
</svg>
