<?xml version="1.0" encoding="utf-8"?>
<!-- Generator: Adobe Illustrator 22.0.1, SVG Export Plug-In . SVG Version: 6.00 Build 0)  -->
<svg version="1.1" id="Layer_1" xmlns="http://www.w3.org/2000/svg" xmlns:xlink="http://www.w3.org/1999/xlink" x="0px" y="0px"
	 viewBox="0 0 500 500" style="enable-background:new 0 0 500 500;" xml:space="preserve">
<path style="fill:#BE4D68;" d="M79.03,426.2c0,0-81.64-73.65-74.25-213.35S143.99,24.86,168.37,15.42S337.22-30.73,443.13,90.2
	s20.54,281.25,11.41,294.11C428.81,420.55,289.56,588.98,79.03,426.2z"/>
<path style="fill:#E9DED1;" d="M242.23,310.45c0,0-40.06-12.37-61.36-61.78s22.62-90.34,29.23-97.49s41.34-39.75,97.63-14.94
	s54.82,93.81,53.94,99.7C359.17,252.57,340.92,332.98,242.23,310.45z"/>
<polygon style="fill:#24233D;" points="232.13,175.82 236.26,199.26 296.44,198.84 248,278.97 284.65,278.32 323.79,193.19 
	314.73,173.83 "/>
</svg>
