<?xml version="1.0" encoding="utf-8"?>
<!-- Generator: Adobe Illustrator 22.0.1, SVG Export Plug-In . SVG Version: 6.00 Build 0)  -->
<svg version="1.1" id="Layer_1" xmlns="http://www.w3.org/2000/svg" xmlns:xlink="http://www.w3.org/1999/xlink" x="0px" y="0px"
	 viewBox="0 0 500 500" style="enable-background:new 0 0 500 500;" xml:space="preserve">
<g>
	<path style="fill:#9B6524;" d="M447.14,7.59c-50.86-22.02-115.21,31.55-115.21,31.55l-41.61,33.32l-33.08,26.48l-13.66,14.1
		l-43.86,45.27l-40.41,41.71L112.83,248l-1.67,2.02L80.48,287l-25.99,31.34C17.12,363.06-4.29,403.43,4.8,433.68
		c10.49,34.91,56.98,56.76,91.06,63.05c63.6,11.73,137.38-79.93,137.38-79.93l129.41-129.41c0,0,55.74-71.02,73.49-95.12
		c12.41-16.84,46.92-42.17,60.81-116.54C501.37,52.02,461.59,13.84,447.14,7.59z"/>
	<polygon style="fill:#F17F3B;" points="345.58,127.44 401.87,136.6 411.03,119.58 392.7,92.09 328.56,72.46 290.33,72.46 
		257.25,98.94 243.59,113.04 287.98,113.04 	"/>
	<path style="fill:#F17F3B;" d="M255.78,205.31c0,0,54.13,20.61,64.26,21.73c10.13,1.13,19.01-23.98,19.01-23.98
		s-16.88-24.76-31.51-30.38c-14.63-5.63-51.76-16.81-77.65-17.94c-9.95-0.43-20.69,1.29-30.16,3.57l-40.41,41.71h43.57
		L255.78,205.31z"/>
	<polygon style="fill:#F17F3B;" points="191.65,305.31 229.24,321.76 249.21,315.01 258.31,289.46 224.18,265.21 198.01,255.93 
		155.82,250.02 111.16,250.02 80.48,287 138.94,293.06 	"/>
</g>
</svg>
