<?xml version="1.0" encoding="utf-8"?>
<!-- Generator: Adobe Illustrator 22.0.1, SVG Export Plug-In . SVG Version: 6.00 Build 0)  -->
<svg version="1.1" id="Layer_1" xmlns="http://www.w3.org/2000/svg" xmlns:xlink="http://www.w3.org/1999/xlink" x="0px" y="0px"
	 viewBox="0 0 500 500" style="enable-background:new 0 0 500 500;" xml:space="preserve">
<g>
	<rect x="19.9" y="19.94" style="fill:#4F2D34;" width="459.76" height="459.76"/>
	<polygon style="fill:#9B6524;" points="480.86,352.55 283.3,352.55 265.51,391.44 265.51,480.07 310.99,497.86 480.86,497.86 
		498.64,456.7 498.64,370.34 	"/>
	<polygon style="fill:#9B6524;" points="349.21,177.01 178.2,177.01 133.87,194.8 133.87,283.41 151.62,322.32 349.24,322.32 
		367,304.56 367,208.38 	"/>
	<polygon style="fill:#9B6524;" points="82.98,177.01 19.9,177.01 2.5,194.42 2.5,278.91 20.28,322.32 82.98,322.32 100.76,304.53 
		100.76,217.1 	"/>
	<polyline style="fill:#9B6524;" points="2.5,456.7 20.28,497.86 217.84,497.86 235.62,480.07 235.62,370.34 188.33,352.55 
		20.28,352.55 2.5,370.34 	"/>
	<polygon style="fill:#9B6524;" points="480.86,177.01 418.16,177.01 400.37,194.8 400.37,287.91 418.16,322.32 480.86,322.32 
		498.64,304.53 498.64,194.8 	"/>
	<polygon style="fill:#9B6524;" points="214.71,0.85 24.87,1.46 2.5,31.91 2.5,129.36 19.9,146.77 191.7,146.77 235.62,116.3 
		235.62,19.94 	"/>
	<polygon style="fill:#9B6524;" points="307.61,146.77 481.05,146.77 498.64,108.99 498.64,19.25 487.66,1.46 283.3,1.46 
		265.51,19.25 265.51,129.17 	"/>
</g>
</svg>
