<?xml version="1.0" encoding="utf-8"?>
<!-- Generator: Adobe Illustrator 22.0.1, SVG Export Plug-In . SVG Version: 6.00 Build 0)  -->
<svg version="1.1" id="Layer_1" xmlns="http://www.w3.org/2000/svg" xmlns:xlink="http://www.w3.org/1999/xlink" x="0px" y="0px"
	 viewBox="0 0 500 500" style="enable-background:new 0 0 500 500;" xml:space="preserve">
<rect x="17.64" y="18.8" style="fill:#56262A;" width="462.91" height="462.91"/>
<polygon style="fill:#A47029;" points="481.75,353.7 282.84,353.7 264.93,392.85 264.93,482.09 310.72,500 481.75,500 
	499.66,458.56 499.66,371.6 "/>
<polygon style="fill:#A47029;" points="349.2,176.95 177.02,176.95 132.38,194.86 132.38,284.08 150.26,323.25 349.24,323.25 
	367.11,305.38 367.11,208.53 "/>
<polygon style="fill:#A47029;" points="81.14,176.95 17.64,176.95 0.11,194.48 0.11,279.55 18.02,323.25 81.14,323.25 99.05,305.34 
	99.05,217.31 "/>
<polyline style="fill:#A47029;" points="0.11,458.56 18.02,500 216.93,500 234.84,482.09 234.84,371.6 187.22,353.7 18.02,353.7 
	0.11,371.6 "/>
<polygon style="fill:#A47029;" points="481.75,176.95 418.63,176.95 400.72,194.86 400.72,288.61 418.63,323.25 481.75,323.25 
	499.66,305.34 499.66,194.86 "/>
<polygon style="fill:#A47029;" points="213.77,-0.42 22.63,0.2 0.11,30.85 0.11,128.97 17.64,146.5 190.62,146.5 234.84,115.83 
	234.84,18.8 "/>
<polygon style="fill:#A47029;" points="307.32,146.5 481.94,146.5 499.66,108.46 499.66,18.11 488.6,0.2 282.84,0.2 264.93,18.11 
	264.93,128.78 "/>
</svg>
