<?xml version="1.0" encoding="utf-8"?>
<!-- Generator: Adobe Illustrator 22.0.1, SVG Export Plug-In . SVG Version: 6.00 Build 0)  -->
<svg version="1.1" id="Layer_1" xmlns="http://www.w3.org/2000/svg" xmlns:xlink="http://www.w3.org/1999/xlink" x="0px" y="0px"
	 viewBox="0 0 500 500" style="enable-background:new 0 0 500 500;" xml:space="preserve">
<path style="fill:#E9DED1;" d="M81.46,76.97l4.22,16.15l78.8,7.65l1.55,56.01L103,154.1l5.07,24.27l58.58,0.63l1.37,49.56
	L122,227.44l6.33,20.88l40.25,0.69l1.72,62l-35.3,2.71l6.87,29.47l330.67-18.5l21.95-191.87l0.84-24.54L81.46,76.97z M466.66,169.55
	l-33.44-1.42l3.45-40.92l32.61,3.17L466.66,169.55z M353.46,164.74l-43.71-1.86l0.85-47.92l42.65,4.14L353.46,164.74z
	 M369.92,120.72l46.57,4.52l-2.3,42.07l-43.57-1.85L369.92,120.72z M353.53,181.01l0.23,52.09l-45.25-1.11l0.92-51.46L353.53,181.01
	z M291.15,162.09l-43-1.83l0.73-51.3l42.27,4.11V162.09z M291.15,180.34v51.23l-43.99-1.08l0.72-50.62L291.15,180.34z
	 M291.15,251.12v50.62l-45.04,3.46l0.78-54.84L291.15,251.12z M308.17,251.41l45.69,0.79l0.2,44.72l-46.76,3.59L308.17,251.41z
	 M371.98,252.51l37.51,0.65l-2.17,39.67l-34.66,2.66L371.98,252.51z M371.68,233.54l-0.82-52.34l42.53,0.46l-2.89,52.83
	L371.68,233.54z M432.06,181.86l33.75,0.36l-3.58,53.52l-34.65-0.85L432.06,181.86z M184.41,102.7l44.54,4.33v52.42L186,157.62
	L184.41,102.7z M186.62,179.21l42.33,0.46v50.38l-40.89-1L186.62,179.21z M188.65,249.36l40.3,0.69v56.46l-38.56,2.96L188.65,249.36
	z M422.79,291.64l3.22-38.2l34.99,0.6l-2.33,34.85L422.79,291.64z"/>
<polygon style="fill:#1A4253;" points="97.36,380.1 146.14,342.87 88.46,18.35 2.66,4.33 2.66,44.6 60.41,52.88 107.82,332.15 
	45.3,374.55 39.79,416.56 479.92,410.89 479.92,371.17 "/>
<path style="fill:#59284F;" d="M134.92,418.39c-15.14,2.48-38.69,19.14-30.09,47.85c8.6,28.71,50.12,39.59,66.63,9.57
	c11.58-21.06,5.28-40.52-8.6-49.48C162.86,426.34,148.54,416.16,134.92,418.39z"/>
<path style="fill:#59284F;" d="M475.71,443.81c-5.35-15.51-26.84-37.31-54.82-23.09c-27.98,14.23-31.54,59.93,2.42,71.92
	c23.82,8.41,42.69-1.73,49.36-17.97C472.67,474.68,480.52,457.75,475.71,443.81z"/>
</svg>
