<?xml version="1.0" encoding="utf-8"?>
<!-- Generator: Adobe Illustrator 22.0.1, SVG Export Plug-In . SVG Version: 6.00 Build 0)  -->
<svg version="1.1" id="Layer_1" xmlns="http://www.w3.org/2000/svg" xmlns:xlink="http://www.w3.org/1999/xlink" x="0px" y="0px"
	 viewBox="0 0 500 500" style="enable-background:new 0 0 500 500;" xml:space="preserve">
<polygon style="fill:#4F2D34;" points="87.67,1.99 91.67,358.59 97.51,498.01 386.5,498.01 397.46,236.15 409.01,1.99 "/>
<path style="fill:#F17F3B;" d="M337.55,265.4c4.09-3.66,14.35-9.08,21.94,0c7.6,9.08,12.96,22.59,7.32,30.18
	c-5.63,7.6-31.18,11.82-34.86-3.38S332.45,269.96,337.55,265.4z"/>
<polygon style="fill:#9B6524;" points="141.19,60.39 232.27,60.39 236.4,177.42 236.4,230.59 145.91,230.27 146.25,135.22 "/>
<polygon style="fill:#9B6524;" points="307.14,260.96 308.24,277.25 309.37,302.1 288.4,302.44 151.81,302.44 147.88,257.9 "/>
<polygon style="fill:#9B6524;" points="261.59,63.5 326.86,60.39 352.68,60.39 345.43,171.23 340.93,232 279.04,229.75 
	261.59,228.85 "/>
<polygon style="fill:#9B6524;" points="150.97,334.14 153.57,371.53 154.69,446.63 322.92,448.62 343.74,444.68 349.39,331.02 
	215.46,334.96 "/>
</svg>
