<?xml version="1.0" encoding="utf-8"?>
<!-- Generator: Adobe Illustrator 22.0.1, SVG Export Plug-In . SVG Version: 6.00 Build 0)  -->
<svg version="1.1" id="Layer_1" xmlns="http://www.w3.org/2000/svg" xmlns:xlink="http://www.w3.org/1999/xlink" x="0px" y="0px"
	 viewBox="0 0 500 500" style="enable-background:new 0 0 500 500;" xml:space="preserve">
<polygon style="fill:#56262A;" points="87.78,-0.17 91.82,359.42 97.7,500 389.11,500 400.17,235.95 411.81,-0.17 "/>
<path style="fill:#EE9621;" d="M339.75,265.44c4.12-3.69,14.47-9.16,22.13,0c7.66,9.16,13.07,22.77,7.38,30.43
	c-5.68,7.66-31.44,11.91-35.15-3.4C330.39,277.15,334.61,270.04,339.75,265.44z"/>
<polygon style="fill:#A47029;" points="141.75,58.72 233.59,58.72 237.76,176.73 237.76,230.34 146.51,230.02 146.85,134.18 "/>
<polygon style="fill:#A47029;" points="309.09,260.97 310.2,277.4 311.33,302.45 290.2,302.79 152.46,302.79 148.49,257.88 "/>
<polygon style="fill:#A47029;" points="263.16,61.85 328.98,58.72 355.01,58.72 347.7,170.49 343.16,231.76 280.75,229.49 
	263.16,228.59 "/>
<polygon style="fill:#A47029;" points="151.61,334.75 154.23,372.47 155.36,448.2 325,450.19 346,446.22 351.69,331.62 
	216.64,335.59 "/>
</svg>
