<?xml version="1.0" encoding="utf-8"?>
<!-- Generator: Adobe Illustrator 22.0.1, SVG Export Plug-In . SVG Version: 6.00 Build 0)  -->
<svg version="1.1" id="Layer_1" xmlns="http://www.w3.org/2000/svg" xmlns:xlink="http://www.w3.org/1999/xlink" x="0px" y="0px"
	 viewBox="0 0 500 500" style="enable-background:new 0 0 500 500;" xml:space="preserve">
<path style="fill:#E9DED1;" d="M481.11,158.92c3-2.78,4.85-4.44,4.85-4.44s-20.86-12.06-37.71-12.69
	c-16.96-0.63-38.15,9.67-38.15,9.67l-11.83,9.64L365.03,0l-54.59,85.13l-4.65,47.98L77.24,4.72l7.24,109.25l64.4,119.29l53.53,48.2
	L3.53,383.14c0,0,62.52,108.14,112.95,116.11c24.8,3.92,100.05-8.68,100.05-8.68l37.05-148.25c0,0,50.29,36.56,87.43,31
	c36.14-5.42,63.09-19.45,74.62-44.42c0.77-1.67,1.5-3.55,2.2-5.61l64.49-164.84L481.11,158.92z"/>
<path style="fill:#5D7333;" d="M443.01,170.61c0,0-3.4,0.26-6.48-2.85c-3.08-3.1-0.98-7.5-0.69-8.24c0.29-0.74,1.94-4.24,6.94-4.04
	c5,0.2,6.94,5.46,7.05,5.93C450.13,162.76,451.14,169.38,443.01,170.61z"/>
<path style="fill:#5D7333;" d="M491.78,135.1l-9.94,0.68c0,0,15.07,40.29-1.17,81.67c-3.34-1.27-8.56-2.32-16.1-1.4
	c-15.02,1.85-17.8,7.53-17.8,7.53s5.88,10.65,19.35,9.78c2.46-0.16,5.24-1.01,7.88-2.09c-1.79,3.09-3.77,6.16-5.99,9.19
	c-2.61,3.58-5.11,6.9-7.5,10.01c-5.3-2.22-13.28-4.63-19.11-2.22c-9.51,3.93-13.52,9.88-13.52,9.88s10.86,7.5,18.48,9.59
	c-4.56,5.17-8.53,9.26-11.95,12.51c-5.85-1.17-16.86-1.78-25.89,6.89c-12.98,12.45-14.94,22.03-14.94,22.03s19.56,0.36,30.97-9.16
	l0.18,0.21c0,0,4.65-3.19,11.67-9.1c-1.51,6.7-2.07,15.4,2.41,22.08c0,0,11.52-5.94,15.02-17.35c2-6.53-0.23-13.59-2.5-18.43
	c5.04-5.04,10.38-10.82,15.64-17.29c-1.93,8.93-1.31,19.94,9.75,26.91c0,0,15.02-16.2,10.8-31.52c-2.04-7.39-4.3-12.64-5.94-15.92
	c2.97-4.85,5.75-9.93,8.25-15.24C511.52,178.23,491.78,135.1,491.78,135.1z"/>
<polygon style="fill:#F17F3B;" points="477.19,150.03 498.28,160.21 477.52,170.69 "/>
</svg>
