<?xml version="1.0" encoding="utf-8"?>
<!-- Generator: Adobe Illustrator 22.0.1, SVG Export Plug-In . SVG Version: 6.00 Build 0)  -->
<svg version="1.1" id="Layer_1" xmlns="http://www.w3.org/2000/svg" xmlns:xlink="http://www.w3.org/1999/xlink" x="0px" y="0px"
	 viewBox="0 0 500 500" style="enable-background:new 0 0 500 500;" xml:space="preserve">
<g>
	<path style="fill:#E9DED1;" d="M476.5,159.81c2.98-2.76,4.83-4.43,4.83-4.43s-20.81-12.03-37.61-12.65
		c-16.91-0.63-38.05,9.64-38.05,9.64l-11.8,9.62L360.74,1.33l-54.44,84.9l-4.64,47.85L73.73,6.04L80.95,115l64.23,118.96
		l53.39,48.07L0.22,383.43c0,0,62.35,107.85,112.65,115.79c24.73,3.91,99.78-8.66,99.78-8.66l36.95-147.85
		c0,0,50.16,36.46,87.19,30.91c36.05-5.4,62.92-19.39,74.42-44.3c0.75-1.62,1.46-3.47,2.14-5.47l64.36-164.52L476.5,159.81z"/>
	<path style="fill:#586B2E;" d="M438.5,171.48c0,0-3.39,0.26-6.46-2.84c-3.07-3.09-0.98-7.48-0.69-8.22
		c0.29-0.74,1.94-4.22,6.92-4.02c4.98,0.2,6.92,5.45,7.03,5.92C445.6,163.64,446.61,170.25,438.5,171.48z"/>
	<path style="fill:#586B2E;" d="M487.14,136.07l-9.91,0.67c0,0,14.89,40.15-1.27,81.41c-3.33-1.25-8.5-2.27-15.94-1.36
		c-14.98,1.84-17.75,7.51-17.75,7.51s5.86,10.63,19.3,9.76c2.46-0.16,5.23-1.04,7.87-2.12c-1.79,3.09-3.77,6.16-5.99,9.2
		c-2.63,3.59-5.1,6.86-7.51,9.98c-5.28-2.22-13.22-4.62-19.04-2.21c-9.49,3.92-13.48,9.86-13.48,9.86s10.83,7.47,18.42,9.54
		c-4.56,5.17-8.52,9.25-11.94,12.49c-5.84-1.16-16.79-1.76-25.8,6.88c-12.94,12.42-14.9,21.97-14.9,21.97s19.5,0.36,30.88-9.14
		l0.18,0.21c0,0,4.67-3.23,11.66-9.11c-1.51,6.69-2.1,15.37,2.38,22.06c0,0,11.49-5.93,14.98-17.31c2-6.54-0.25-13.55-2.52-18.38
		c5.06-5.05,10.4-10.86,15.68-17.36c-1.96,8.93-1.41,19.98,9.67,26.96c0,0,14.98-16.16,10.77-31.44c-2.05-7.43-4.3-12.64-5.95-15.9
		c2.96-4.84,5.76-9.88,8.25-15.17C506.83,179.07,487.14,136.07,487.14,136.07z"/>
	<polygon style="fill:#F17F3B;" points="472.59,150.95 493.62,161.11 472.92,171.56 	"/>
</g>
</svg>
