<?xml version="1.0" encoding="utf-8"?>
<!-- Generator: Adobe Illustrator 22.0.1, SVG Export Plug-In . SVG Version: 6.00 Build 0)  -->
<svg version="1.1" id="Layer_1" xmlns="http://www.w3.org/2000/svg" xmlns:xlink="http://www.w3.org/1999/xlink" x="0px" y="0px"
	 viewBox="0 0 500 500" style="enable-background:new 0 0 500 500;" xml:space="preserve">
<g>
	<path style="fill:#59284F;" d="M372.33,45.22c0,0-15.29,14.17-29.08,29.96c-13.65,15.63-42.07,74.16-66.38,87.86
		c-25.16,14.18-118.06,47.65-165.58,85.55C21.02,320.58,25.85,372.76,31.5,399.92c4.94,23.68,32.02,90.56,102.37,98.49
		c56.43,6.36,116.05-7.43,139.77-16.01c46.11-16.67,121.02-111.95,148.56-163.5c25.35-47.45,46.1-194.35,35.36-226.84
		c-10.75-32.49-50.33-49.75-50.33-49.75L372.33,45.22z"/>
	<path style="fill:#586B2E;" d="M465.89,71.77c-8.43-31.1-44.28-38.83-44.28-38.83s-0.38-0.07-0.94-0.18
		c-0.68-10.37-2.51-20.92-3.65-25.35c-2.48-9.58-14.54-5.34-16.72,1.05c-2.09,6.1-2.94,15.23-3.28,22.33
		c-8.91,0.07-18.91,1.16-27.64,4.63c-18.09,7.18-50.8,44.21-42.61,59.34c5.27,9.74,38.69-30.13,38.69-30.13s27.64,59.98,40.74,63.88
		c17.55,5.24,17.9-44.29,17.9-44.29s4.27,9.49,6.04,12.52c6.21,10.59,19.87,65.32,28.64,58.34
		C472.99,143.73,474.32,102.88,465.89,71.77z"/>
</g>
</svg>
