<?xml version="1.0" encoding="utf-8"?>
<!-- Generator: Adobe Illustrator 22.0.1, SVG Export Plug-In . SVG Version: 6.00 Build 0)  -->
<svg version="1.1" id="Layer_1" xmlns="http://www.w3.org/2000/svg" xmlns:xlink="http://www.w3.org/1999/xlink" x="0px" y="0px"
	 viewBox="0 0 500 500" style="enable-background:new 0 0 500 500;" xml:space="preserve">
<g>
	<polyline style="fill:#A6C439;" points="155.64,294.43 186.73,387.21 206.95,387.21 203.91,377.28 198.19,377.28 165.93,281.77 	
		"/>
	<polyline style="fill:#A6C439;" points="316.5,177.2 381.36,380.62 399.61,382.27 403.3,395.11 370.27,396.49 302.93,188.26 	"/>
	<polygon style="fill:#A6C439;" points="124.7,233.86 33.02,349.38 1.24,353.32 1.24,365.14 44.07,365.14 131.26,250.73 	"/>
	<path style="fill:#586B2E;" d="M93.34,215.84c0,0,37.43-11.98,40.01-11.98s209.73,85.44,209.73,85.44l31.95,30.65
		c0,0-24.06,18.2-36.56,20.49c-51.31,9.39-207.06-43.15-207.06-43.15l-46.94-65.41L93.34,215.84z"/>
	<polygon style="fill:#A6C439;" points="145.32,250.35 67.9,372.1 39.32,376.04 39.32,387.87 76.27,387.87 165.85,258.11 	"/>
	<path style="fill:#A6C439;" d="M93.34,185.14L500,301.73c0,0-72.63,43.01-226.02,0s-180.63-85.9-180.63-85.9V185.14z"/>
	<path style="fill:#A6C439;" d="M202.41,258.63l47.87-33.91l94.8-82.99l86.59,235.94l29.56,7.56l3.69,12.85l-44.34-4.53
		l-83.63-226.11l-60.34,55.83c0,0-2.22,28.72-2.96,30.98s-51.11,70-51.11,70s-14.82-1.11-23.69-3.38c-8.87-2.27-16.37-34-16.37-34
		L202.41,258.63z"/>
	<path style="fill:#A6C439;" d="M55.48,194.96l-38.65-26.07l-4.36-8.42L29.4,134.4l238.29,7.32c0,0-49.66,10.68-117.36,5.77
		c-37.12-2.69-112.93-6.37-112.93-6.37l-14.34,22.16l33.82,21.86"/>
	<path style="fill:#A6C439;" d="M83.67,201.36l-32.22-29.85v-8.88l6.8-8.76l223.82,27.18c0,0,0.25,7.11-67.32,0.66
		c-34.21-3.26-152.87-20.02-152.87-20.02l-2.95,9.19l26.15,20.66"/>
	<polyline style="fill:#A6C439;" points="200.37,306.81 231.56,388.96 253.08,388.96 246.53,374.83 239.51,374.83 210.65,294.15 	
		"/>
	<path style="fill:#A6C439;" d="M93.34,185.14l-37.55-2.41c0,0-16.25,37.09-14.17,48.66c1.11,6.2,7.18,18.86,12.81,21.68
		c11.21,5.61,31.1-10.8,31.1-10.8l15.63-40.64L93.34,185.14z"/>
</g>
</svg>
