<?xml version="1.0" encoding="utf-8"?>
<!-- Generator: Adobe Illustrator 22.0.1, SVG Export Plug-In . SVG Version: 6.00 Build 0)  -->
<svg version="1.1" id="Layer_1" xmlns="http://www.w3.org/2000/svg" xmlns:xlink="http://www.w3.org/1999/xlink" x="0px" y="0px"
	 viewBox="0 0 500 500" style="enable-background:new 0 0 500 500;" xml:space="preserve">
<g>
	<path style="fill:#E9DED1;" d="M251.9,119.24L148.38,0.86L3,42.72c0,0,57.47,45.98,114.78,17.33L37,108.11
		c0,0,84.93,30.81,119.66-13.62l-63.64,58.75C93.03,153.24,149.7,173.25,251.9,119.24z"/>
	<path style="fill:#E9DED1;" d="M368.56,226.31l129.3,109.77L464.1,459.44c0,0-22.51-23-15.75-106.02l-36.04,68.73
		c0,0-21.77-60.85-3.54-97.78l-40.21,72.06C368.56,396.42,325.34,314.09,368.56,226.31z"/>
	<path style="fill:#A6C439;" d="M3,307.36l182.35,191.78c0,0,70.63-38.64,111.38-72.33c28.6-23.64,57.01-112.56,57.01-112.56
		s62.31-102.52,110.35-123.88c29.82-13.26,33.76-20.97,33.76-20.97L331.39,3.49l-58.31,26.87c0,0-67.81,45.09-88.07,95.99
		s-41.48,81.76-62.51,104.38C99.44,255.54,3,307.36,3,307.36z"/>
	<path style="fill:#586B2E;" d="M416.84,154.41c0-7.43,2.48-14.24,6.56-19.81l-76.06-75.04c-5.4,8.45-14.8,14.08-25.57,14.08
		c-12.86,0-23.8-8.02-28.24-19.31c-9.49,6.23-19.84,14.31-29.18,24.54c-26.44,28.92-63.57,108.26-80.45,130.2
		c-13.3,17.3-68.54,66.37-106.23,91.34c5.14,5.07,8.33,12.11,8.33,19.89c0,7.22-2.81,13.73-7.29,18.69
		c27.88,25.98,71.49,66.38,99.06,90.76c5.39-5.51,12.89-8.95,21.21-8.95c12.34,0,22.91,7.53,27.4,18.24
		c17.98-9.76,42.55-27.04,59.2-57.81c28.31-52.33,53.28-125.87,82.99-154.93c16.84-16.47,39.74-36.07,56.52-50.05
		C420.02,170.36,416.84,162.79,416.84,154.41z"/>
	<path style="fill:#A6C439;" d="M259.55,314.05c0,0-28.18,2.13-53.74-23.6s-8.11-62.25-5.73-68.37
		c2.38-6.12,16.11-35.14,57.55-33.47s57.54,45.3,58.44,49.22C318.61,248.88,327.01,303.82,259.55,314.05z"/>
	<path style="fill:#586B2E;" d="M298.37,283.79l-6.3-5.72c7.35-8.76,13.6-19,12-27.29c-3.54-18.41-37.85-22.55-37.85-22.55
		l-12.51,14.99l-20.32-18.55l18.3-13.53l-6.49-8.37c0,0-6.12,4.23-13.23,9.75c-1.63,1.27-3.58,3.32-5.61,5.77l-8.14-7.3l-6.4,8.71
		l8.07,7.51c-4.61,7.15-8.58,15.18-9.36,20.86c-1.49,10.75,16.12,23.57,23.67,26.7c4.82,2,13.69-7.63,19.47-14.85l20.11,19.33
		l-10.69,11.18l9.43,6.82c0,0,4.62-3.71,10.33-9.28l6.38,6.13L298.37,283.79z M237.08,263.14l-17.97-14.59l7.62-14.74l19.21,18.71
		L237.08,263.14z M261.82,250.6l15.14-11.18l16.7,19.04l-10.78,11.27L261.82,250.6z"/>
</g>
</svg>
