<?xml version="1.0" encoding="utf-8"?>
<!-- Generator: Adobe Illustrator 22.0.1, SVG Export Plug-In . SVG Version: 6.00 Build 0)  -->
<svg version="1.1" id="Layer_1" xmlns="http://www.w3.org/2000/svg" xmlns:xlink="http://www.w3.org/1999/xlink" x="0px" y="0px"
	 viewBox="0 0 500 500" style="enable-background:new 0 0 500 500;" xml:space="preserve">
<g>
	<path style="fill:#E9DED1;" d="M492.9,80.4C479.22,47.16,422.86-0.28,359.64,3.41C312.22,6.18,254.67,49.5,254.67,49.5
		L151.85,149.62l-7.5,7.14l-79.49,75.6c-31.2,30.36-46.74,62.08-56.11,90.54c-8.67,26.34-7.67,66.99-6.3,81.16
		c2.75,28.35,60.03,90.45,107.93,92.54c79.8,3.47,136.99-43.76,136.99-43.76l103.15-98.16l112.37-110.36
		C494.38,199.49,506.59,113.64,492.9,80.4z"/>
	<path style="fill:#BE4D68;" d="M492.9,80.4C479.22,47.17,422.86-0.28,359.64,3.41C312.22,6.18,254.67,49.5,254.67,49.5
		L151.85,149.62l-7.5,7.14c15.24,4.49,32.4,4.07,52.32,10.29c29.1,9.08,60.69,25.61,72.64,36.82c29.19,27.37,68.7,95.32,68.7,95.32
		l12.51,55.49l112.37-110.36C494.38,199.49,506.59,113.64,492.9,80.4z"/>
</g>
</svg>
