<?xml version="1.0" encoding="utf-8"?>
<!-- Generator: Adobe Illustrator 22.0.1, SVG Export Plug-In . SVG Version: 6.00 Build 0)  -->
<svg version="1.1" id="Layer_1" xmlns="http://www.w3.org/2000/svg" xmlns:xlink="http://www.w3.org/1999/xlink" x="0px" y="0px"
	 viewBox="0 0 500 500" style="enable-background:new 0 0 500 500;" xml:space="preserve">
<g>
	<path style="fill:#F17F3B;" d="M118.39,134.22c0,0-32.62-65.35-47.32-63.9c-14.7,1.45-55.11,58.2-62.46,88.75
		s-18.58,92.61,18.58,83.36c37.15-9.25,76.01-68.81,76.01-68.81L118.39,134.22z"/>
	<path style="fill:#F17F3B;" d="M310.06,42.24c1.79-10.65,0.42-37.76,15.39-39.85c14.97-2.09,59.63,16.3,76.22,27.99
		c15.46,10.89,24.05,23.34-38.34,65.2S308.29,52.79,310.06,42.24z"/>
	<path style="fill:#9B6524;" d="M496.7,244.97c-28.06,12.14,2.21,31.81,2.21,31.81c-36.17,11.89-3.13,36.16-3.13,36.16
		c-35.57,3.52-7.58,29.47-7.58,29.47c-36.43-4.79-10.16,24.33-10.16,24.33c-37.69-9.58-18.82,30.79-18.82,30.79
		c-23.48-13.49-12.44,15.52-12.44,15.52c-33.18-16.35-22.37,22.66-22.37,22.66c-32.57-16.85-22.78,18.6-22.78,18.6
		c-33.42-17.93-28.48,19.1-28.48,19.1c-26.06-21.85-31.26,14.81-31.26,14.81c-15.87-23.15-20.7,5.06-20.7,5.06
		c-21.34-27.37-33.79,4.13-33.79,4.13c-17.93-30.65-34.08,0.38-34.08,0.38c0.96-26.81-19.54-3.07-19.54-3.07
		c-6.51-29.65-21.78-4.24-21.78-4.24c-3.72-36.8-27.54-8.07-27.54-8.07c-4.45-29.58-28.65-11.7-28.65-11.7
		c9.01-29.69-20.4-10.75-20.4-10.75c5.78-37.52-23.16-16.98-23.16-16.98c9.53-33.05-18.94-19.74-18.94-19.74
		c12.15-29.07-14.2-20.5-14.2-20.5c15.66-24.89-11.38-22.68-11.38-22.68c19.16-18.52-7.54-20.84-7.54-20.84
		c26.7-26.03-7.43-31.48-7.43-31.48c22.31-11.28-2.43-17.25-2.43-17.25c26.43-21.53-1.37-26.4-1.37-26.4
		c24.42-10.33,0-25.65,0-25.65c25.55-11.12,0.82-22.74,0.82-22.74s24.73-10.88,4.42-32.74c0,0,27.06-1.33,10.18-26.62
		c0,0,37.13-5.36,11.54-30.4c0,0,31.78,5.73,17.64-26.4c0,0,39.46,13,27.47-28.59c0,0,36.75,27.26,25.42-18.76
		c0,0,23.13,0.64,26.3-14.41c0,0,32.05,10.23,35.06-13.67c0,0,27.14,7.23,31.11-7.21c0,0,12.26,41.85,38.3-1.76
		c0,0,6.02,33.82,23.86,2.85c0,0,8.11,31.58,26.81,6.83c0,0,5.56,27.3,27.79,11.2c0,0,4.94,27.81,24,13.16
		c0,0,3.73,28.93,30.52,21.77c0,0-12.74,39.34,30.8,28.59c0,0-4.74,20.65,18.41,21.71c0,0-16.7,25.05,16.45,31.06
		c0,0-10.43,22.69,15.56,33.66c0,0-9.13,9.02-7.16,19.33C486.53,237.16,496.7,244.97,496.7,244.97z"/>
	<path style="fill:#24233D;" d="M328.46,172.28c-6.1,1-15.58,7.71-12.12,19.27c3.46,11.56,20.18,15.95,26.83,3.85
		c4.66-8.48,2.13-16.32-3.46-19.93C339.72,175.48,333.95,171.38,328.46,172.28z"/>
	<path style="fill:#24233D;" d="M404.71,163.35c-1.85-5.35-9.26-12.88-18.92-7.97s-10.88,20.68,0.84,24.82
		c8.22,2.9,14.73-0.6,17.04-6.2C403.66,174.01,406.37,168.16,404.71,163.35z"/>
	<path style="fill:#F17F3B;" d="M149.74,82.82c-6.88-9.12-30.08-27.76-17.33-40.78s70.69-33.96,96.14-38.22
		c23.71-3.97,42.05-1.51,15.66,76.84S156.56,91.85,149.74,82.82z"/>
	<path style="fill:#F17F3B;" d="M415.25,211.53c-13.44-6.32-40.83-1.26-50.31,4.18c-9.48,5.44-18.5,17.83-20.72,25.56
		c-6.41,22.28,24.11,27.15,37.56,26.96s42.53-19.34,45.06-24.82C429.37,237.94,428.69,217.85,415.25,211.53z M407.83,241.74
		c-10.18,9.02-42.76,23.32-42.82-1.35c0,0,3.34-14.15,24.69-16.86C411.06,220.83,418.01,232.72,407.83,241.74z"/>
</g>
</svg>
