<?xml version="1.0" encoding="utf-8"?>
<!-- Generator: Adobe Illustrator 22.0.1, SVG Export Plug-In . SVG Version: 6.00 Build 0)  -->
<svg version="1.1" id="Layer_1" xmlns="http://www.w3.org/2000/svg" xmlns:xlink="http://www.w3.org/1999/xlink" x="0px" y="0px"
	 viewBox="0 0 500 500" style="enable-background:new 0 0 500 500;" xml:space="preserve">
<path style="fill:#F17F3B;" d="M117.86,134.69c0,0-32.78-65.67-47.55-64.21c-14.77,1.46-55.38,58.48-62.76,89.18
	s-18.67,93.06,18.66,83.76c37.33-9.29,76.38-69.14,76.38-69.14L117.86,134.69z"/>
<path style="fill:#F17F3B;" d="M310.46,42.26c1.8-10.7,0.42-37.94,15.46-40.04c15.04-2.1,59.91,16.38,76.59,28.13
	c15.54,10.94,24.16,23.46-38.53,65.52S308.68,52.86,310.46,42.26z"/>
<path style="fill:#A47029;" d="M498,245.97c-28.19,12.2,2.22,31.96,2.22,31.96c-36.35,11.95-3.15,36.34-3.15,36.34
	c-35.74,3.54-7.62,29.61-7.62,29.61c-36.6-4.81-10.21,24.44-10.21,24.44c-37.87-9.63-18.91,30.94-18.91,30.94
	c-23.6-13.55-12.5,15.59-12.5,15.59c-33.34-16.42-22.47,22.77-22.47,22.77c-32.72-16.94-22.89,18.69-22.89,18.69
	c-33.58-18.02-28.62,19.19-28.62,19.19c-26.18-21.95-31.41,14.88-31.41,14.88c-15.95-23.26-20.8,5.08-20.8,5.08
	c-21.44-27.5-33.95,4.15-33.95,4.15c-18.02-30.8-34.25,0.38-34.25,0.38c0.96-26.94-19.64-3.08-19.64-3.08
	c-6.54-29.79-21.88-4.26-21.88-4.26c-3.74-36.98-27.67-8.1-27.67-8.1c-4.47-29.72-28.79-11.76-28.79-11.76
	c9.05-29.84-20.5-10.8-20.5-10.8c5.81-37.7-23.28-17.07-23.28-17.07c9.58-33.21-19.03-19.83-19.03-19.83
	c12.21-29.21-14.26-20.6-14.26-20.6c15.73-25.01-11.44-22.79-11.44-22.79c19.25-18.61-7.58-20.94-7.58-20.94
	c26.83-26.16-7.46-31.63-7.46-31.63c22.42-11.34-2.44-17.34-2.44-17.34c26.56-21.64-1.37-26.52-1.37-26.52
	c24.54-10.38,0-25.78,0-25.78c25.67-11.17,0.82-22.85,0.82-22.85s24.85-10.94,4.44-32.9c0,0,27.19-1.33,10.23-26.74
	c0,0,37.31-5.39,11.6-30.55c0,0,31.93,5.76,17.72-26.53c0,0,39.65,13.06,27.6-28.73c0,0,36.93,27.39,25.55-18.85
	c0,0,23.24,0.64,26.43-14.48c0,0,32.21,10.28,35.23-13.73c0,0,27.27,7.26,31.26-7.24c0,0,12.32,42.06,38.49-1.77
	c0,0,6.05,33.99,23.98,2.86c0,0,8.15,31.73,26.94,6.86c0,0,5.59,27.44,27.93,11.25c0,0,4.96,27.94,24.11,13.23
	c0,0,3.74,29.07,30.67,21.88c0,0-12.8,39.53,30.95,28.73c0,0-4.77,20.75,18.5,21.81c0,0-16.78,25.17,16.53,31.21
	c0,0-10.48,22.8,15.63,33.82c0,0-9.18,9.07-7.2,19.43C487.78,238.13,498,245.97,498,245.97z"/>
<path style="fill:#393653;" d="M328.95,172.93c-6.13,1.01-15.66,7.75-12.18,19.37c3.48,11.62,20.28,16.02,26.96,3.87
	c4.69-8.52,2.14-16.4-3.48-20.02C340.26,176.15,334.46,172.02,328.95,172.93z"/>
<path style="fill:#393653;" d="M405.56,163.96c-1.85-5.38-9.31-12.94-19.01-8.01c-9.7,4.93-10.94,20.78,0.84,24.94
	c8.26,2.92,14.81-0.6,17.12-6.23C404.51,174.67,407.23,168.8,405.56,163.96z"/>
<path style="fill:#F17F3B;" d="M149.37,83.04c-6.91-9.16-30.23-27.9-17.41-40.98s71.03-34.12,96.6-38.4
	c23.82-3.99,42.25-1.52,15.73,77.21C217.78,159.6,156.21,92.11,149.37,83.04z"/>
<path style="fill:#F17F3B;" d="M416.16,212.37c-13.5-6.35-41.02-1.26-50.55,4.2c-9.53,5.46-18.59,17.92-20.82,25.69
	c-6.44,22.39,24.22,27.28,37.74,27.09c13.52-0.19,42.74-19.43,45.27-24.94C430.34,238.91,429.66,218.72,416.16,212.37z
	 M408.7,242.73c-10.22,9.06-42.96,23.44-43.03-1.36c0,0,3.36-14.22,24.81-16.94C411.95,221.72,418.93,233.67,408.7,242.73z"/>
</svg>
