<?xml version="1.0" encoding="utf-8"?>
<!-- Generator: Adobe Illustrator 22.0.1, SVG Export Plug-In . SVG Version: 6.00 Build 0)  -->
<svg version="1.1" id="Layer_1" xmlns="http://www.w3.org/2000/svg" xmlns:xlink="http://www.w3.org/1999/xlink" x="0px" y="0px"
	 viewBox="0 0 500 500" style="enable-background:new 0 0 500 500;" xml:space="preserve">
<g>
	<path style="fill:#E9DED1;" d="M366.05,64.59c4.01-44.73,5.4-57.39,5.4-57.39s-3.39-7.14-10.83-7.14s-61.51,19.04-85.11,18.58
		c-23.6-0.46-108.21-4.04-108.21-4.04s-4.01,15.4-0.63,15.4c1.12,0,13.44,0.74,30.41,1.45l-0.34,35.57
		c-20.05,0.21-34.69,0.11-34.69,0.11l-3.5,12.66c0,0,17.14-0.77,38.09-1.66l-0.4,41.78c-20.79-0.61-35.94-1.29-35.94-1.29
		l-1.75,15.75c0,0,17.71-0.03,37.55-0.05l-0.38,39.8c-20.58-1.47-37.18-2.82-37.18-2.82l-1.75,13.15c0,0,19.68,0.32,38.82,1.19
		l-0.37,39.32H156.8l3.5,20.2l34.76-0.94l-0.46,48.44c-21.04,0.78-37.8,1.51-37.8,1.51l-3.47,16.04l41.11-0.8l-0.43,45.09
		c-17.75,0.67-31.97,1.11-31.97,1.11v12.04c0,0,13.38-0.64,31.86-1.44l-0.34,35.91c-19.73,0.44-35.74,1.07-35.74,1.07l1.75,15.56
		c0,0,15.25,0.05,33.84-0.09l-0.39,41.53c-2.11,0.02-3.88,0.1-5.25,0.25c-22.79,2.53-34.43,5.91-34.43,5.91v11.97
		c0,0,57.22-5.37,80.85-2.34s90.12,12.02,107.51,17.18c17.39,5.16,22.07,3.5,22.07,3.5l7.68-13.37c0,0-9.98-84.61-5.26-121.25
		c4.72-36.64,18.62-99.93,18.62-99.93s-0.44-17.72,0-28.69C385.25,222.42,362.04,109.32,366.05,64.59z M341.97,224.95
		c-0.18-11.95-1.28-22.88-3.98-30.38c-0.74-2.05-1.4-5.42-2-9.81c12.47-0.64,23.01-1.23,29.55-1.6c2.03,15.36,3.79,30.08,4.88,41.79
		H341.97z M330.56,246.44c0,0-2.89,21.75-6.93,45.82c-9-0.32-18.35-0.64-27.14-0.89c1.27-18.75,1.74-32.71,0.99-36.89
		c-0.32-1.76-0.82-6.44-1.45-13.01l33.79-0.91C330.29,244.3,330.56,246.44,330.56,246.44z M310.13,354.26
		c-6.37-0.69-12.82-1.34-18.97-1.89c1.6-15.54,3.03-31.01,4.14-44.95l25.76-0.5c-2.86,15.56-6.05,30.47-9.12,39.56
		C311.22,348.6,310.63,351.23,310.13,354.26z M349.62,422.11c-7.43-1.69-18.15-4.12-29.63-6.69c0.05-11.4,0.28-21.16,0.86-25.9
		c0.53-4.33,1.83-12.26,3.51-21.97c9.99,2.16,19.48,4.69,25.67,6.43c-0.58,4.82-0.96,8.95-1.06,12.16
		C348.68,395.3,349.03,408.57,349.62,422.11z M251.85,242.67l31.61-0.85c0.54,13.56,0.77,31.82-0.63,49.2
		c-6.08-0.14-11.56-0.22-16.02-0.24c-4.29-0.02-9.65,0.04-15.66,0.16c0.24-9.36,0.53-16.84,0.88-21.55
		C252.68,260.64,252.48,251.6,251.85,242.67z M352.83,97.42c0.59,3.49,1.38,8.37,2.31,14.24c-4.92,0.6-12.96,1.62-23.26,3.05
		c-0.47-16.64-0.77-33.68-0.97-48.87c8.34-1.64,15.62-3.13,20.39-4.11C351.19,75.8,351.51,89.57,352.83,97.42z M286.02,134.35
		c-0.08-0.56-0.16-1.2-0.22-1.88c11.03-0.68,23.11-1.47,34.48-2.22c0.13,6.35,0.32,12.14,0.56,17.06c0.42,8.3,1.1,17.58,1.92,27.05
		c-11.02,0.76-22.54,1.53-32.45,2.15C288.65,157.82,287.07,141.3,286.02,134.35z M332.34,129.43c10.22-0.69,19.17-1.31,25.28-1.74
		c1.99,13.1,4.24,28.44,6.34,43.75c-4.59,0.33-15.82,1.14-29.19,2.07C333.72,161.58,332.93,146.07,332.34,129.43z M320.08,116.39
		c-4.61,0.67-9.52,1.41-14.67,2.21c-4.97,0.77-11.8,1.31-19.81,1.66c0.29-12.51,1.62-30.03,3.15-46.85
		c9.53-1.46,20.77-3.48,31.36-5.49C319.97,83.71,319.92,100.94,320.08,116.39z M275.61,120.61c-9.08,0.23-19.11,0.28-29.36,0.23
		c0.33-14.8,0.69-30.44,1.03-44.71c9.91-0.34,17.86-0.56,21.8-0.56c2.23,0,5.37-0.26,9.15-0.7
		C277.07,91,276.01,107.96,275.61,120.61z M247.98,134.35c3.78,0.04,14.26-0.48,27.49-1.26c0.01,0.44,0.02,0.86,0.04,1.26
		c0.37,10.01,1.59,26.76,2.9,42.86c-3.7,0.21-6.88,0.37-9.33,0.48c-4.95,0.21-13.6-0.03-23.95-0.52c0.09-7.81,0.41-23.9,0.82-42.83
		C246.72,134.34,247.41,134.35,247.98,134.35z M245.5,188.3c9.51-0.12,21.26-0.47,33.74-0.94c1.53,18.23,2.94,33.37,2.94,33.37
		s0.14,1.52,0.33,4.22h-32.4C248.46,211.16,246.37,198.37,245.5,188.3z M281.22,307.7c-1.03,11.35-2.2,26.77-3.29,43.64
		c-8.29-0.53-15.16-0.69-19.18-0.25c-2.12,0.23-5.01,0.47-8.46,0.71c0.12-15.45,0.28-30.43,0.5-43.52L281.22,307.7z M277.19,363.36
		c-0.83,13.97-1.58,28.49-2.11,42.21c-5.04-1.06-9.19-1.9-11.98-2.41c-2.88-0.53-7.43-0.89-13.05-1.13
		c0.03-12.2,0.08-25.13,0.16-37.99C260,363.73,269.28,363.48,277.19,363.36z M250.01,417.3c6.34-0.04,14.97,0.81,24.59,2.17
		c-0.61,20.95-0.58,38.61,0.59,47.33c-8.42-0.92-16.93-1.81-25.18-2.63C249.99,455.37,249.97,438.13,250.01,417.3z M286.26,421.27
		c7.45,1.24,15.15,2.67,22.61,4.14c0.91,20.67,2.29,38.79,2.84,45.54c-7.33-0.86-15.24-1.78-23.41-2.7
		C287.52,459.84,286.21,442.54,286.26,421.27z M308.39,412.83c-7.57-1.68-15.11-3.35-21.93-4.82c0.32-10.99,1.05-22.69,2.4-34.52
		c0.39-3.38,0.77-6.8,1.14-10.22c3.22,0.02,5.88,0.08,7.84,0.19c3.41,0.2,7.16,0.63,11.07,1.22
		C307.81,378.23,307.86,395.78,308.39,412.83z M294.53,224.95c-1.01-11.49-2.16-24.96-3.31-38.07c10.98-0.46,22.14-0.98,32.54-1.5
		c1.37,14.42,2.92,28.54,4.2,39.57H294.53z M351.53,47.94c-5.1,1.28-12.39,3.13-20.76,5.28c-0.14-13.9-0.18-25.33-0.2-32.06
		c11.83-3.47,22.26-6.57,22.26-6.57S351.97,29.95,351.53,47.94z M320.69,24.06c-0.13,7.3-0.31,18.68-0.46,31.89
		c-5.58,1.46-11.4,2.99-17.19,4.54c-3.32,0.89-7.87,1.66-13.29,2.33c1.23-12.72,2.47-24.25,3.31-31.84
		c3.96-0.49,7.35-1.09,9.98-1.83C307.44,27.91,313.89,26.04,320.69,24.06z M281.59,31.99c-0.6,7.04-1.57,18.75-2.56,31.93
		c-9.39,0.81-20.25,1.42-31.51,1.88c0.33-13.94,0.62-25.78,0.79-33.05C260.26,32.8,271.81,32.6,281.59,31.99z M208.86,31.9
		c8.56,0.3,17.8,0.57,27.08,0.72c-0.23,7.25-0.59,19.2-0.93,33.63c-9.07,0.28-18.12,0.48-26.61,0.61L208.86,31.9z M208.26,77.64
		c8.91-0.37,18.05-0.73,26.52-1.06c-0.29,13.69-0.54,28.92-0.65,44.14c-9.04-0.12-18.02-0.3-26.44-0.51L208.26,77.64z M207.5,134.3
		c9.61-0.01,19.03-0.01,26.57,0.01c-0.02,15.11,0.14,29.73,0.56,42.32c-8.89-0.49-18.44-1.1-27.67-1.73L207.5,134.3z M206.82,186.21
		c7.16,0.43,13.61,0.96,18.09,1.6c2.07,0.29,5.61,0.45,10.24,0.51c0.28,5.1,0.63,9.68,1.05,13.54c1.02,9.39,1.77,16.81,2.29,23.08
		H206.3L206.82,186.21z M206.05,243.91l33.32-0.9c0.05,11.78-1.19,21.94-3.18,43.37c-0.14,1.49-0.27,3.14-0.39,4.91
		c-9.8,0.27-20.33,0.61-30.39,0.96L206.05,243.91z M205.18,309.18l29.75-0.58c-0.46,12.64-0.75,28-0.94,44.16
		c-9.16,0.47-19.49,0.91-29.41,1.31L205.18,309.18z M204.43,365.74c9.32-0.39,19.42-0.79,29.46-1.15
		c-0.1,12.44-0.14,25.08-0.14,37.09c-9.38-0.07-19.78,0.03-29.8,0.21L204.43,365.74z M203.18,460.4l0.56-41.86
		c10.27-0.12,20.87-0.3,30.03-0.58c0.04,19.29,0.16,35.59,0.24,44.69C222.24,461.58,211.58,460.78,203.18,460.4z M320.68,472.01
		c-0.22-9.53-0.58-27.4-0.68-44.35c12.65,2.63,23.68,5.13,30.2,6.64c1.15,22.03,2.62,41.65,2.62,41.65
		C350.08,475.62,337.65,474.04,320.68,472.01z M352.09,359.34c-5.48-0.73-14.88-1.95-25.73-3.24c2.82-16.06,6.13-34.55,8.57-49.45
		l26.52-0.52C358.06,324.4,354.53,343.6,352.09,359.34z M371.45,246.44c-0.53,7.91-3.82,26.25-7.73,47.38
		c-6.25-0.26-15.77-0.65-26.65-1.06c0.38-2.61,0.68-4.95,0.91-6.93c1.26-10.95,3.13-28.3,3.78-45.59l29.68-0.8
		C371.56,242.3,371.57,244.67,371.45,246.44z"/>
	<polygon style="fill:#1A4253;" points="119.88,24.48 153.33,14.59 167.3,14.59 167.3,477.14 153.33,478.29 115.18,463.95 
		115.18,442.21 147.72,456.32 147.72,39.27 119.88,48.06 	"/>
</g>
</svg>
