<?xml version="1.0" encoding="utf-8"?>
<!-- Generator: Adobe Illustrator 22.0.1, SVG Export Plug-In . SVG Version: 6.00 Build 0)  -->
<svg version="1.1" id="Layer_1" xmlns="http://www.w3.org/2000/svg" xmlns:xlink="http://www.w3.org/1999/xlink" x="0px" y="0px"
	 viewBox="0 0 500 500" style="enable-background:new 0 0 500 500;" xml:space="preserve">
<g>
	<path style="fill:#E9DED1;" d="M12.18,332.7c0,0-39.6-103.69,31.18-225.91S254.82,1.66,281.07,4.35S454.08,40.37,493.8,197.72
		S383.16,460.03,369.05,467.4C329.27,488.18,126.75,575.7,12.18,332.7z"/>
	<path style="fill:#24233D;" d="M3.72,295.87l73.07,10.89l75.38,128.03l-22.35,36.69c63.55,36.27,125.37,31.03,167.52,21.63
		l-40.53-70.38l26.53-104.69l68.58-30.62l58.88,45.55l4.33,97.46c33.2-32.24,73.38-83.99,83.09-150.17l-82.23,36.2l-55.3-37.86
		l8.11-80.43l43.61-77.51l61.65,23.22c-25.74-52.01-64.5-85.34-100.85-106.35l-106.15-9.61l-23.1-25.87
		C211.49,1.8,164.63,6.43,120.8,30.39l6.82,67.63l-63.51,86.34L7.67,198.21c0,0-4.63,19.74-6.5,46.9
		C-0.77,273.4,3.72,295.87,3.72,295.87z M243.28,409.74l-83.2,17.59L89.84,305.81l21.3-52.25h115.8l43.91,60.44L243.28,409.74z
		 M218.97,241.38L112,236.8l-30.04-50.93l53.24-86.86l76.35,8.27l62.29,58.57L218.97,241.38z M286.16,165.96l-61.76-65.08
		l44.69-61.51l98.52,9.13l41.3,64.53l-45.56,78L286.16,165.96z"/>
</g>
</svg>
